<?xml version="1.0" encoding="utf-8"?>
<!-- Svg Vector Icons : http://www.onlinewebfonts.com/icon -->
<!DOCTYPE svg PUBLIC "-//W3C//DTD SVG 1.1//EN" "http://www.w3.org/Graphics/SVG/1.1/DTD/svg11.dtd">
<svg version="1.1" xmlns="http://www.w3.org/2000/svg" xmlns:xlink="http://www.w3.org/1999/xlink" x="0px" y="0px" viewBox="0 0 256 256" enable-background="new 0 0 256 256" xml:space="preserve">
<metadata> Svg Vector Icons : http://www.onlinewebfonts.com/icon </metadata>
<g><g><g><path fill="#000000" d="M119.5,10.3C72.3,13.7,31,46,15.9,91.4c-9.9,29.8-7.3,62.8,7.3,90.7c9.5,18.1,23.7,33.8,40.8,44.9c15.1,9.9,31.4,15.8,50.6,18.4c6.4,0.9,21.7,0.7,28.4-0.2c27.3-3.9,50.7-15.8,69.7-35.4c17.9-18.5,28.7-40.6,32.4-66.7c1.2-8.1,1.1-22.9-0.2-31.4c-3.8-25.3-14.6-47.3-32.4-65.5C188.1,20.8,154.2,7.8,119.5,10.3z M143.2,18.4c36.9,5.1,68.4,27.9,84.4,61c7.5,15.6,10.9,30.7,11,48.5c0,18.2-3.6,33.8-11.2,49.4c-16.3,33.2-47,55.1-84.7,60.6c-7,1-22.7,1-29.6,0c-37.7-5.5-68.5-27.7-84.6-61c-14.9-30.5-14.9-66.8,0-97.5c15.6-32.1,45.7-54.5,81.3-60.5C119.9,17.2,133,17,143.2,18.4z"/><path fill="#000000" d="M140.2,110.1c-7,7-14.5,14.3-16.6,16.4l-3.8,3.6l-4.5-4.5c-3.6-3.5-4.8-4.5-5.9-4.5c-1,0-2.4,1.1-5.9,4.5c-5.2,4.9-6.1,6.2-5.7,7.7c0.1,0.6,4.9,5.6,10.6,11.3c8.7,8.7,10.5,10.3,11.6,10.3c1.2,0,4.4-3,23.4-22c20.8-20.8,22.1-22.2,22.1-23.7c0-1.5-0.5-2.1-4.7-6.3C153.6,95.6,155.4,94.9,140.2,110.1z"/></g></g></g>
</svg>